<?xml version="1.0" standalone="no"?>
<!DOCTYPE svg PUBLIC "-//W3C//DTD SVG 20010904//EN"
 "http://www.w3.org/TR/2001/REC-SVG-20010904/DTD/svg10.dtd">
<svg version="1.0" xmlns="http://www.w3.org/2000/svg"
 width="326.000000pt" height="326.000000pt" viewBox="0 0 326.000000 326.000000"
 preserveAspectRatio="xMidYMid meet">
<metadata>
Created by potrace 1.14, written by Peter Selinger 2001-2017
</metadata>
<g transform="translate(0.000000,326.000000) scale(0.100000,-0.100000)"
fill="#000000" stroke="none">
<path d="M1380 2983 c-14 -2 -67 -15 -119 -29 -350 -91 -642 -366 -755 -709
-41 -126 -55 -225 -53 -378 l2 -138 -32 -30 c-42 -38 -64 -81 -65 -128 0 -48
15 -77 53 -100 29 -18 29 -18 9 -36 -24 -22 -43 -78 -35 -105 8 -24 36 -26 93
-6 l41 15 16 -31 c8 -17 14 -32 13 -32 -2 -1 -20 -9 -40 -18 -44 -20 -69 -55
-70 -97 -1 -47 25 -77 84 -96 29 -10 56 -20 59 -24 4 -3 10 -33 13 -65 3 -33
13 -70 21 -83 19 -28 69 -42 114 -32 32 7 39 4 89 -42 62 -57 107 -82 195
-109 203 -62 489 -41 791 58 l114 37 18 -34 c36 -65 106 -96 174 -78 94 24
147 150 86 204 l-25 21 94 53 c296 167 498 370 550 552 18 63 21 154 6 204 -8
26 -5 37 16 66 33 46 41 113 19 155 -16 32 -16 32 9 42 18 7 25 17 25 35 0 32
-39 92 -76 116 -22 14 -28 26 -30 63 -4 56 -22 101 -60 145 -37 45 -85 63
-159 62 l-60 -1 -25 48 c-34 64 -127 178 -202 247 -136 125 -348 236 -498 260
-19 3 -50 10 -68 15 -32 8 -282 11 -332 3z"/>
<path d="M1338 335 c-2 -1 -66 -6 -143 -10 -77 -3 -153 -8 -170 -9 -16 -2 -61
-6 -100 -10 -167 -17 -318 -52 -337 -79 -13 -21 6 -37 66 -56 67 -20 125 -30
276 -45 41 -4 91 -9 110 -11 239 -25 945 -25 1195 0 169 17 216 23 285 36 113
21 164 46 153 74 -8 23 -128 57 -244 69 -31 4 -65 8 -75 10 -11 2 -62 7 -114
11 -52 4 -117 9 -145 11 -56 5 -753 12 -757 9z"/>
</g>
</svg>
